<?xml version="1.0" encoding="UTF-8"?>
<svg viewBox="0 0 588.31885 650.32196" xmlns="http://www.w3.org/2000/svg" xmlns:xlink="http://www.w3.org/1999/xlink">
 <defs>
  <linearGradient id="d">
   <stop stop-color="#eee" stop-opacity=".84444" offset="0"/>
   <stop stop-color="#eee" stop-opacity="0" offset="1"/>
  </linearGradient>
  <linearGradient id="e">
   <stop stop-color="#ededed" offset="0"/>
   <stop stop-color="#0169c8" offset="1"/>
  </linearGradient>
  <linearGradient id="a">
   <stop stop-color="#888" offset="0"/>
   <stop stop-color="#333" offset="1"/>
  </linearGradient>
  <linearGradient id="b">
   <stop stop-color="#e9e9ea" offset="0"/>
   <stop stop-color="#fff" offset="1"/>
  </linearGradient>
  <linearGradient id="m" x1="155.19" x2="416.94" gradientUnits="userSpaceOnUse">
   <stop stop-color="#aaa" offset="0"/>
   <stop stop-color="#ededed" offset=".48044"/>
   <stop stop-color="#eee" stop-opacity="0" offset="1"/>
  </linearGradient>
  <linearGradient id="k" x1="127.85" x2="468.25" y1="493.28" y2="489.21" gradientTransform="matrix(.96361 0 0 .85858 9.2316 68.608)" gradientUnits="userSpaceOnUse">
   <stop stop-color="#eee" offset="0"/>
   <stop stop-color="#eee" stop-opacity="0" offset="1"/>
  </linearGradient>
  <linearGradient id="h" x2="0" y1="74.705" y2="134.15" gradientUnits="userSpaceOnUse">
   <stop stop-color="#dadadb" offset="0"/>
   <stop stop-color="#fff" offset="1"/>
  </linearGradient>
  <linearGradient id="u" x2="0" y1="276.66" y2="475.36" gradientUnits="userSpaceOnUse" xlink:href="#b"/>
  <linearGradient id="t" x1="176.71" x2="263.85" gradientUnits="userSpaceOnUse" xlink:href="#a"/>
  <linearGradient id="s" x1="289.91" x2="433.23" gradientUnits="userSpaceOnUse" xlink:href="#a"/>
  <linearGradient id="r" x1="258.55" x2="181.19" y1="415.91" y2="416.73" gradientUnits="userSpaceOnUse" xlink:href="#a"/>
  <linearGradient id="q" x1="419.78" x2="296.82" y1="364.62" y2="365.02" gradientUnits="userSpaceOnUse" xlink:href="#a"/>
  <linearGradient id="p" x1="359.32" x2="361.57" y1="402.05" y2="323.17" gradientUnits="userSpaceOnUse" xlink:href="#e"/>
  <linearGradient id="o" x1="328" x2="420" gradientUnits="userSpaceOnUse" xlink:href="#d"/>
  <linearGradient id="n" x2="0" y1="144.64" y2="195.82" gradientUnits="userSpaceOnUse" xlink:href="#a"/>
  <linearGradient id="l" x2="0" y1="481.06" y2="525.85" gradientUnits="userSpaceOnUse" xlink:href="#a"/>
  <linearGradient id="c" x1="170.06" x2="172.34" y1="263.9" y2="128.33" gradientUnits="userSpaceOnUse" xlink:href="#b"/>
  <linearGradient id="j" x1="170.06" x2="172.34" y1="263.26" y2="127.69" gradientUnits="userSpaceOnUse" xlink:href="#b"/>
  <linearGradient id="i" x1="170.06" x2="172.34" y1="262.61" y2="127.05" gradientUnits="userSpaceOnUse" xlink:href="#b"/>
  <radialGradient id="g" cx="228.29" cy="376.28" r="32.981" gradientTransform="matrix(.08303 4.0501 -2.024 .0415 962.9 -544.67)" gradientUnits="userSpaceOnUse" xlink:href="#e"/>
  <radialGradient id="f" cx="238.16" cy="343.38" r="30.766" gradientTransform="matrix(-.83224 2.5153 -1 -.33087 764.07 -128.73)" gradientUnits="userSpaceOnUse" xlink:href="#d"/>
 </defs>
 <g transform="translate(-218.44 -64.119)">
  <g transform="matrix(1.5281 0 0 1.5281 53.876 -43.819)">
   <path d="m228.02 130.89h8.9578v20.359h-8.9578z" fill="#cccccf"/>
   <path d="m360.75 130.89h8.9578v20.359h-8.9578z" fill="#cccccf"/>
   <path d="m148.21 268.52h311.08v213.36h-311.08z" fill="#cccccf"/>
   <path d="m153.91 276.66h298.05v198.7h-298.05z" fill="url(#u)"/>
   <path d="m289.91 326.34h143.32v77.362h-143.32z" fill="url(#s)"/>
   <path d="m176.71 326.34h87.135v155.54h-87.135z" fill="url(#t)"/>
   <path d="m181.19 334.07h78.177v147.4h-78.177z" fill="url(#r)"/>
   <path d="m187.3 343.03h65.962v129.48h-65.962z" fill="url(#g)"/>
   <path d="m191.72 343.03c15.351 9.7358 41.035 27.296 61.531 47.719v-47.719h-61.531z" fill="url(#f)" opacity=".76889"/>
   <path d="m296.82 333.82h129.5v62.391h-129.5z" fill="url(#q)"/>
   <path d="m303.15 338.43h116.84v53.178h-116.84z" fill="url(#p)"/>
   <path d="m328 338.44c17.655 14.189 43.757 35.698 64.906 53.156h27.094v-53.156h-92z" fill="url(#o)"/>
   <g transform="translate(0 -1.1516)">
    <path d="m119.71 480.25h372.97v17.101h-372.97z" fill="url(#l)"/>
    <path d="m126.15 485.13h356.26v6.9918h-356.26z" fill="url(#k)"/>
   </g>
   <path d="m148.53 236.61v55.188c0 9.815 7.9038 17.719 17.719 17.719h6.7188c8.0894 0 14.893-5.3672 17.031-12.75 2.1403 7.379 8.8821 12.75 16.969 12.75h6.7188c8.0866 0 14.86-5.371 17-12.75 2.1379 7.3828 8.9106 12.75 17 12.75h6.7188c7.631 0 14.09-4.7922 16.594-11.531 2.5013 6.7444 8.9589 11.531 16.594 11.531h6.7188c7.2376 0 13.431-4.3073 16.188-10.5 2.7563 6.1927 8.9499 10.5 16.188 10.5h6.7188c6.6007 0 12.326-3.5796 15.375-8.9062 3.0497 5.3248 8.7757 8.9062 15.375 8.9062h6.7188c6.0531 0 11.369-3.0183 14.562-7.625 3.1948 4.5981 8.4848 7.625 14.531 7.625h6.7188c5.3354 0 10.1-2.354 13.344-6.0625 3.2433 3.7085 8.0084 6.0625 13.344 6.0625h6.7188c9.815 0 17.719-7.9038 17.719-17.719v-55.188h-309.28z" fill="#cccccf"/>
   <g transform="matrix(1 0 0 .78241 0 78.293)">
    <path d="m446.91 107.91v151.47c0 9.815 7.9038 17.719 17.719 17.719h7.6875c9.815 0 17.719-7.9038 17.719-17.719v-9.8125l-43.125-141.66z" fill="#d40000"/>
    <path d="m193.28 104.94v154.44c0 9.815 7.9038 17.719 17.719 17.719h7.6562c9.815 0 17.719-7.9038 17.719-17.719v-154.44h-43.094z" fill="#d40000"/>
    <path d="m150.78 104.94v154.44c0 9.815 7.9038 17.719 17.719 17.719h7.6875c9.815 0 17.719-7.9038 17.719-17.719v-154.44h-43.125z" fill="url(#c)"/>
    <path d="m235.75 104.94v154.44c0 9.815 7.9038 17.719 17.719 17.719h7.6875c9.815 0 17.719-7.9038 17.719-17.719v-154.44h-43.125z" fill="url(#j)"/>
    <path d="m277.62 104.94v154.44c0 9.815 7.9038 17.719 17.719 17.719h7.6562c9.815 0 17.719-7.9038 17.719-17.719v-154.44h-43.094z" fill="#d40000"/>
    <path d="m320.72 104.94v154.44c0 9.815 7.9038 17.719 17.719 17.719h7.6875c9.815 0 17.719-7.9038 17.719-17.719v-154.44h-43.125z" fill="url(#c)"/>
    <path d="m362.31 104.94v154.44c0 9.815 7.9038 17.719 17.719 17.719h7.6875c9.815 0 17.719-7.9038 17.719-17.719v-154.44h-43.125z" fill="#d40000"/>
    <path d="m405.06 104.94v154.44c0 9.815 7.9038 17.719 17.719 17.719h7.6875c9.815 0 17.688-7.9038 17.688-17.719v-154.44h-43.094z" fill="url(#i)"/>
    <path d="m149.66 104.94-41.969 136.12v18.312c0 9.815 7.9038 17.719 17.719 17.719h7.6562c9.815 0 17.719-7.9038 17.719-17.719v-154.44h-1.125z" fill="#d40000"/>
   </g>
   <path d="m148.47 143.7h300.54v19.544h-300.54z" fill="url(#n)"/>
   <path d="m155.19 148.47h285.18v9.3068h-285.18z" fill="url(#m)"/>
   <path d="m215.99 70.634h174.7a11.594 11.594 0 0 1 11.594 11.594v44.403a11.594 11.594 0 0 1 -11.594 11.594h-174.7a11.594 11.594 0 0 1 -11.594 -11.594v-44.403a11.594 11.594 0 0 1 11.594 -11.594" fill="#d40000"/>
   <path d="m220.88 74.705h164.93a11.594 11.594 0 0 1 11.594 11.594v36.26a11.594 11.594 0 0 1 -11.594 11.594h-164.93a11.594 11.594 0 0 1 -11.594 -11.594v-36.26a11.594 11.594 0 0 1 11.594 -11.594" fill="url(#h)"/>
   <g transform="matrix(1.123 0 -.18928 .89048 8.2722 110.75)" fill="#aaa" font-family="Casual" font-size="58.496">
    <path d="m225.17 0.2356c-2e-5 2.8078-1.0725 5.0502-3.2173 6.7271-1.5599 1.2089-3.3538 1.8134-5.3817 1.8134-0.93596-1.9e-6 -1.9304-0.13649-2.9833-0.40947-2.8468-0.70196-5.4402-2.3594-7.78-4.9722-0.50697-0.58496-0.76045-1.3064-0.76045-2.1644 0-1.7939 0.87744-2.8078 2.6323-3.0418 1.4429-0.19498 2.8858 0.68247 4.3287 2.6323 0.93593 1.2869 2.2618 1.9304 3.9778 1.9304s2.6908-0.66295 2.9248-1.9889c0.19497-1.2869-0.76047-2.7103-2.8663-4.2702-0.195-0.15598-1.7939-1.1504-4.7967-2.9833-3.7438-2.2618-5.6157-4.7772-5.6156-7.546-1e-5 -2.4568 1.0139-4.4652 3.0418-6.0251 1.8719-1.4429 4.0752-2.1643 6.6101-2.1644 2.4568 2.9e-5 4.8552 0.68249 7.195 2.0474 1.0919 0.62399 1.6379 1.5794 1.6379 2.8663-2e-5 1.9109-1.014 2.8663-3.0418 2.8663-0.312 2.1e-5 -1.2284-0.29246-2.7493-0.87745-1.4819-0.62394-2.7688-0.93592-3.8608-0.93594-1.5989 2.3e-5 -2.3984 0.74098-2.3984 2.2229-1e-5 1.4039 1.5599 2.7494 4.6797 4.0362 5.6156 2.2619 8.4235 5.6742 8.4235 10.237"/>
    <path d="m256.7-9.9428c0.27296 5.8106-0.3705 11.056-1.9304 15.736-0.468 1.4819-1.4819 2.2229-3.0418 2.2229-0.93597-1.2e-6 -1.7549-0.31198-2.4568-0.93594-0.66298-0.62396-0.99446-1.3649-0.99444-2.2229-2e-5 -0.38997 0.0585-0.87744 0.17549-1.4624 1.1309-4.2507 1.5989-8.7744 1.4039-13.571-0.078-2.8468-1.1504-4.2702-3.2173-4.2702-1.9109 2.1e-5 -4.5822 3.3343-8.014 10.003v7.663c-1e-5 1.0139-0.31199 1.8329-0.93594 2.4568-0.62397 0.58496-1.4429 0.87745-2.4568 0.87745-0.97495 3e-7 -1.7744-0.31198-2.3984-0.93594s-0.93595-1.4234-0.93595-2.3984v-33.928c0-1.2479 0.44847-2.3593 1.3454-3.3343 0.93594-0.9749 2.0084-1.4624 3.2173-1.4624 1.4429 4.2e-5 2.1644 0.81899 2.1644 2.4568v18.075c3.0028-3.7827 5.9276-5.6741 8.7745-5.6742 2.5348 2.8e-5 4.7382 1.1894 6.6101 3.5683 1.7159 2.1839 2.6128 4.5627 2.6908 7.1366"/>
    <path d="m285.65-8.7728c-3e-5 4.0948-1.0335 7.858-3.1003 11.29-2.3789 3.9778-5.4987 5.9666-9.3594 5.9666-0.70197-1.6e-6 -1.4234-0.078-2.1644-0.23399-2.8078-0.58496-4.9332-2.1254-6.3761-4.6212-1.2869-2.1839-1.9304-4.8162-1.9304-7.897-1e-5 -4.0947 1.0334-7.8385 3.1003-11.231 2.4178-3.9777 5.5376-5.9666 9.3594-5.9666 0.70194 2.8e-5 1.4234 0.07802 2.1644 0.23399 2.8078 0.58499 4.9332 2.1254 6.3761 4.6212 1.2869 2.1449 1.9304 4.7577 1.9304 7.8385m-6.6686 0.29248c-2e-5 -1.1699-0.234-2.3788-0.70196-3.6268-0.58498-1.5209-1.3649-2.3788-2.3398-2.5738-1.4429-0.31196-2.8273 0.50699-4.1532 2.4568-1.053 1.5209-1.7549 3.1003-2.1059 4.7382-0.195 0.93596-0.2925 1.9109-0.29249 2.9248-1e-5 1.1699 0.23398 2.3789 0.70196 3.6268 0.58495 1.5209 1.3649 2.3789 2.3399 2.5738s2.0474-0.23398 3.2173-1.2869c1.4819-1.3259 2.4958-3.2953 3.0418-5.9081 0.19497-0.93593 0.29246-1.9109 0.29248-2.9248"/>
    <path d="m314.45-9.7088c-3e-5 4.4067-1.6769 7.897-5.0307 10.471-2.9638 2.2619-6.7661 3.5878-11.407 3.9778v11.582c-1e-5 0.97493-0.33149 1.7744-0.99444 2.3984-0.62397 0.62395-1.4234 0.93593-2.3984 0.93594s-1.7744-0.31199-2.3984-0.93594-0.93594-1.4234-0.93594-2.3984v-35.332c0-0.97491 0.29248-1.7744 0.87745-2.3984 0.62395-0.66293 1.4234-0.99441 2.3984-0.99444 1.7549-0.03897 2.8468 0.74098 3.2758 2.3399 2.1058-1.6769 4.2312-2.5153 6.3761-2.5153 3.0418 3e-5 5.5571 1.4234 7.546 4.2702 1.7939 2.5739 2.6908 5.4402 2.6908 8.599m-6.6686-1.3454c-0.039-1.0919-0.38999-2.0864-1.0529-2.9833s-1.5209-1.3454-2.5738-1.3454c-1.9499 2.2e-5 -3.9973 1.5794-6.1421 4.7382v8.599c6.7076-0.66295 9.9639-3.6658 9.7689-9.0084"/>
   </g>
   <g transform="matrix(1.123 0 -.18928 .89048 9.4937 111.16)" fill="#d40000" font-family="Casual" font-size="58.496">
    <path d="m225.17 0.2356c-2e-5 2.8078-1.0725 5.0502-3.2173 6.7271-1.5599 1.2089-3.3538 1.8134-5.3817 1.8134-0.93596-1.9e-6 -1.9304-0.13649-2.9833-0.40947-2.8468-0.70196-5.4402-2.3594-7.78-4.9722-0.50697-0.58496-0.76045-1.3064-0.76045-2.1644 0-1.7939 0.87744-2.8078 2.6323-3.0418 1.4429-0.19498 2.8858 0.68247 4.3287 2.6323 0.93593 1.2869 2.2618 1.9304 3.9778 1.9304s2.6908-0.66295 2.9248-1.9889c0.19497-1.2869-0.76047-2.7103-2.8663-4.2702-0.195-0.15598-1.7939-1.1504-4.7967-2.9833-3.7438-2.2618-5.6157-4.7772-5.6156-7.546-1e-5 -2.4568 1.0139-4.4652 3.0418-6.0251 1.8719-1.4429 4.0752-2.1643 6.6101-2.1644 2.4568 2.9e-5 4.8552 0.68249 7.195 2.0474 1.0919 0.62399 1.6379 1.5794 1.6379 2.8663-2e-5 1.9109-1.014 2.8663-3.0418 2.8663-0.312 2.1e-5 -1.2284-0.29246-2.7493-0.87745-1.4819-0.62394-2.7688-0.93592-3.8608-0.93594-1.5989 2.3e-5 -2.3984 0.74098-2.3984 2.2229-1e-5 1.4039 1.5599 2.7494 4.6797 4.0362 5.6156 2.2619 8.4235 5.6742 8.4235 10.237"/>
    <path d="m256.7-9.9428c0.27296 5.8106-0.3705 11.056-1.9304 15.736-0.468 1.4819-1.4819 2.2229-3.0418 2.2229-0.93597-1.2e-6 -1.7549-0.31198-2.4568-0.93594-0.66298-0.62396-0.99446-1.3649-0.99444-2.2229-2e-5 -0.38997 0.0585-0.87744 0.17549-1.4624 1.1309-4.2507 1.5989-8.7744 1.4039-13.571-0.078-2.8468-1.1504-4.2702-3.2173-4.2702-1.9109 2.1e-5 -4.5822 3.3343-8.014 10.003v7.663c-1e-5 1.0139-0.31199 1.8329-0.93594 2.4568-0.62397 0.58496-1.4429 0.87745-2.4568 0.87745-0.97495 3e-7 -1.7744-0.31198-2.3984-0.93594s-0.93595-1.4234-0.93595-2.3984v-33.928c0-1.2479 0.44847-2.3593 1.3454-3.3343 0.93594-0.9749 2.0084-1.4624 3.2173-1.4624 1.4429 4.2e-5 2.1644 0.81899 2.1644 2.4568v18.075c3.0028-3.7827 5.9276-5.6741 8.7745-5.6742 2.5348 2.8e-5 4.7382 1.1894 6.6101 3.5683 1.7159 2.1839 2.6128 4.5627 2.6908 7.1366"/>
    <path d="m285.65-8.7728c-3e-5 4.0948-1.0335 7.858-3.1003 11.29-2.3789 3.9778-5.4987 5.9666-9.3594 5.9666-0.70197-1.6e-6 -1.4234-0.078-2.1644-0.23399-2.8078-0.58496-4.9332-2.1254-6.3761-4.6212-1.2869-2.1839-1.9304-4.8162-1.9304-7.897-1e-5 -4.0947 1.0334-7.8385 3.1003-11.231 2.4178-3.9777 5.5376-5.9666 9.3594-5.9666 0.70194 2.8e-5 1.4234 0.07802 2.1644 0.23399 2.8078 0.58499 4.9332 2.1254 6.3761 4.6212 1.2869 2.1449 1.9304 4.7577 1.9304 7.8385m-6.6686 0.29248c-2e-5 -1.1699-0.234-2.3788-0.70196-3.6268-0.58498-1.5209-1.3649-2.3788-2.3398-2.5738-1.4429-0.31196-2.8273 0.50699-4.1532 2.4568-1.053 1.5209-1.7549 3.1003-2.1059 4.7382-0.195 0.93596-0.2925 1.9109-0.29249 2.9248-1e-5 1.1699 0.23398 2.3789 0.70196 3.6268 0.58495 1.5209 1.3649 2.3789 2.3399 2.5738s2.0474-0.23398 3.2173-1.2869c1.4819-1.3259 2.4958-3.2953 3.0418-5.9081 0.19497-0.93593 0.29246-1.9109 0.29248-2.9248"/>
    <path d="m314.45-9.7088c-3e-5 4.4067-1.6769 7.897-5.0307 10.471-2.9638 2.2619-6.7661 3.5878-11.407 3.9778v11.582c-1e-5 0.97493-0.33149 1.7744-0.99444 2.3984-0.62397 0.62395-1.4234 0.93593-2.3984 0.93594s-1.7744-0.31199-2.3984-0.93594-0.93594-1.4234-0.93594-2.3984v-35.332c0-0.97491 0.29248-1.7744 0.87745-2.3984 0.62395-0.66293 1.4234-0.99441 2.3984-0.99444 1.7549-0.03897 2.8468 0.74098 3.2758 2.3399 2.1058-1.6769 4.2312-2.5153 6.3761-2.5153 3.0418 3e-5 5.5571 1.4234 7.546 4.2702 1.7939 2.5739 2.6908 5.4402 2.6908 8.599m-6.6686-1.3454c-0.039-1.0919-0.38999-2.0864-1.0529-2.9833s-1.5209-1.3454-2.5738-1.3454c-1.9499 2.2e-5 -3.9973 1.5794-6.1421 4.7382v8.599c6.7076-0.66295 9.9639-3.6658 9.7689-9.0084"/>
   </g>
  </g>
  <path d="m425.28 566.23h9.7721v23.616h-9.7721z" fill="#666"/>
 </g>
</svg>
